<svg xmlns="http://www.w3.org/2000/svg" viewBox="0 0 1920 1080" role="img" aria-label="Abstract technology network background">
  <defs>
    <linearGradient id="bg" x1="0" y1="0" x2="1" y2="1">
      <stop offset="0%" stop-color="#0c1a2d"/>
      <stop offset="100%" stop-color="#152d4c"/>
    </linearGradient>
    <radialGradient id="glowA" cx="20%" cy="20%" r="45%">
      <stop offset="0%" stop-color="#3f7dd8" stop-opacity="0.45"/>
      <stop offset="100%" stop-color="#3f7dd8" stop-opacity="0"/>
    </radialGradient>
    <radialGradient id="glowB" cx="78%" cy="76%" r="40%">
      <stop offset="0%" stop-color="#2e5fa8" stop-opacity="0.35"/>
      <stop offset="100%" stop-color="#2e5fa8" stop-opacity="0"/>
    </radialGradient>
    <filter id="soft" x="-10%" y="-10%" width="120%" height="120%">
      <feGaussianBlur stdDeviation="1.2"/>
    </filter>
  </defs>

  <rect width="1920" height="1080" fill="url(#bg)"/>
  <rect width="1920" height="1080" fill="url(#glowA)"/>
  <rect width="1920" height="1080" fill="url(#glowB)"/>

  <g stroke="#8fb6ef" stroke-opacity="0.22" stroke-width="1.2" fill="none">
    <path d="M120 840 L360 700 L620 760 L860 580 L1120 620 L1370 480 L1630 560"/>
    <path d="M180 420 L390 500 L640 430 L900 500 L1120 390 L1380 450 L1700 340"/>
    <path d="M240 220 L460 300 L720 230 L980 300 L1200 220 L1460 300 L1740 210"/>
    <path d="M260 940 L520 860 L770 930 L1020 840 L1260 910 L1500 820 L1760 900"/>
    <path d="M100 620 L330 560 L580 640 L840 520 L1090 570 L1330 460 L1590 520"/>
  </g>

  <g fill="#b7d0f7" fill-opacity="0.65" filter="url(#soft)">
    <circle cx="120" cy="840" r="4"/>
    <circle cx="360" cy="700" r="4"/>
    <circle cx="620" cy="760" r="4"/>
    <circle cx="860" cy="580" r="4"/>
    <circle cx="1120" cy="620" r="4"/>
    <circle cx="1370" cy="480" r="4"/>
    <circle cx="1630" cy="560" r="4"/>

    <circle cx="180" cy="420" r="4"/>
    <circle cx="390" cy="500" r="4"/>
    <circle cx="640" cy="430" r="4"/>
    <circle cx="900" cy="500" r="4"/>
    <circle cx="1120" cy="390" r="4"/>
    <circle cx="1380" cy="450" r="4"/>
    <circle cx="1700" cy="340" r="4"/>

    <circle cx="240" cy="220" r="4"/>
    <circle cx="460" cy="300" r="4"/>
    <circle cx="720" cy="230" r="4"/>
    <circle cx="980" cy="300" r="4"/>
    <circle cx="1200" cy="220" r="4"/>
    <circle cx="1460" cy="300" r="4"/>
    <circle cx="1740" cy="210" r="4"/>
  </g>
</svg>
